<?xml version="1.0" encoding="UTF-8"?>
<mxfile host="app.diagrams.net" modified="2025-05-21T17:30:00.000Z" agent="python-script" etag="xyz" version="22.1.22" type="device">
  <diagram id="diagram1" name="Pagina-1">
    <mxGraphModel dx="1200" dy="800" grid="1" gridSize="10" guides="1" tooltips="1" connect="1" arrows="1" fold="1" page="1" pageScale="1" pageWidth="827" pageHeight="1169" math="0" shadow="0">
      <root>
        <mxCell id="0"/>
        <mxCell id="1" parent="0"/>
    <mxCell id="2" value="" style="shape=rectangle;whiteSpace=wrap;html=1;strokeColor=#000000;fillColor=#FFFFFF;fontSize=14;fontFamily=Arial;fontStyle=1" vertex="1" parent="1">
      <mxGeometry x="0" y="0" width="380" height="440" as="geometry" />
    </mxCell>

    <mxCell id="3" value="Speler" style="shape=rectangle;whiteSpace=wrap;html=1;strokeColor=#000000;fillColor=#FFFFFF;fontSize=16;fontFamily=Arial;fontStyle=1;" vertex="1" parent="1">
      <mxGeometry x="0" y="0" width="380" height="40" as="geometry" />
    </mxCell>

    <mxCell id="4" value="PK" style="shape=rectangle;whiteSpace=wrap;html=1;strokeColor=#000000;fillColor=#FFFFFF;fontSize=14;fontFamily=Arial;fontStyle=1" vertex="1" parent="1">
      <mxGeometry x="0" y="40" width="60" height="40" as="geometry" />
    </mxCell>

    <mxCell id="5" value="SpelerID
INT
NOT NULL, UNIQUE" style="shape=rectangle;whiteSpace=wrap;html=1;strokeColor=#000000;fillColor=#FFFFFF;fontSize=14;fontFamily=Arial;fontStyle=1" vertex="1" parent="1">
      <mxGeometry x="60" y="40" width="320" height="40" as="geometry" />
    </mxCell>

    <mxCell id="6" value="" style="shape=rectangle;whiteSpace=wrap;html=1;strokeColor=#000000;fillColor=#FFFFFF;fontSize=14;fontFamily=Arial;fontStyle=1" vertex="1" parent="1">
      <mxGeometry x="0" y="80" width="60" height="40" as="geometry" />
    </mxCell>

    <mxCell id="7" value="Gebruikersnaam
VARCHAR(100)
NOT NULL, UNIQUE" style="shape=rectangle;whiteSpace=wrap;html=1;strokeColor=#000000;fillColor=#FFFFFF;fontSize=14;fontFamily=Arial;fontStyle=1" vertex="1" parent="1">
      <mxGeometry x="60" y="80" width="320" height="40" as="geometry" />
    </mxCell>

    <mxCell id="8" value="" style="shape=rectangle;whiteSpace=wrap;html=1;strokeColor=#000000;fillColor=#FFFFFF;fontSize=14;fontFamily=Arial;fontStyle=1" vertex="1" parent="1">
      <mxGeometry x="0" y="120" width="60" height="40" as="geometry" />
    </mxCell>

    <mxCell id="9" value="UUID
CHAR(36)
NOT NULL, UNIQUE" style="shape=rectangle;whiteSpace=wrap;html=1;strokeColor=#000000;fillColor=#FFFFFF;fontSize=14;fontFamily=Arial;fontStyle=1" vertex="1" parent="1">
      <mxGeometry x="60" y="120" width="320" height="40" as="geometry" />
    </mxCell>

    <mxCell id="10" value="" style="shape=rectangle;whiteSpace=wrap;html=1;strokeColor=#000000;fillColor=#FFFFFF;fontSize=14;fontFamily=Arial;fontStyle=1" vertex="1" parent="1">
      <mxGeometry x="0" y="160" width="60" height="40" as="geometry" />
    </mxCell>

    <mxCell id="11" value="EersteLogin
DATETIME
NOT NULL" style="shape=rectangle;whiteSpace=wrap;html=1;strokeColor=#000000;fillColor=#FFFFFF;fontSize=14;fontFamily=Arial;fontStyle=1" vertex="1" parent="1">
      <mxGeometry x="60" y="160" width="320" height="40" as="geometry" />
    </mxCell>

    <mxCell id="12" value="" style="shape=rectangle;whiteSpace=wrap;html=1;strokeColor=#000000;fillColor=#FFFFFF;fontSize=14;fontFamily=Arial;fontStyle=1" vertex="1" parent="1">
      <mxGeometry x="0" y="200" width="60" height="40" as="geometry" />
    </mxCell>

    <mxCell id="13" value="LaatsteLogin
DATETIME" style="shape=rectangle;whiteSpace=wrap;html=1;strokeColor=#000000;fillColor=#FFFFFF;fontSize=14;fontFamily=Arial;fontStyle=1" vertex="1" parent="1">
      <mxGeometry x="60" y="200" width="320" height="40" as="geometry" />
    </mxCell>

    <mxCell id="14" value="" style="shape=rectangle;whiteSpace=wrap;html=1;strokeColor=#000000;fillColor=#FFFFFF;fontSize=14;fontFamily=Arial;fontStyle=1" vertex="1" parent="1">
      <mxGeometry x="0" y="240" width="60" height="40" as="geometry" />
    </mxCell>

    <mxCell id="15" value="IsBanned
BOOLEAN
NOT NULL" style="shape=rectangle;whiteSpace=wrap;html=1;strokeColor=#000000;fillColor=#FFFFFF;fontSize=14;fontFamily=Arial;fontStyle=1" vertex="1" parent="1">
      <mxGeometry x="60" y="240" width="320" height="40" as="geometry" />
    </mxCell>

    <mxCell id="16" value="" style="shape=rectangle;whiteSpace=wrap;html=1;strokeColor=#000000;fillColor=#FFFFFF;fontSize=14;fontFamily=Arial;fontStyle=1" vertex="1" parent="1">
      <mxGeometry x="0" y="280" width="60" height="40" as="geometry" />
    </mxCell>

    <mxCell id="17" value="Ervaring
INT
NOT NULL" style="shape=rectangle;whiteSpace=wrap;html=1;strokeColor=#000000;fillColor=#FFFFFF;fontSize=14;fontFamily=Arial;fontStyle=1" vertex="1" parent="1">
      <mxGeometry x="60" y="280" width="320" height="40" as="geometry" />
    </mxCell>

    <mxCell id="18" value="" style="shape=rectangle;whiteSpace=wrap;html=1;strokeColor=#000000;fillColor=#FFFFFF;fontSize=14;fontFamily=Arial;fontStyle=1" vertex="1" parent="1">
      <mxGeometry x="0" y="320" width="60" height="40" as="geometry" />
    </mxCell>

    <mxCell id="19" value="Level
INT
NOT NULL" style="shape=rectangle;whiteSpace=wrap;html=1;strokeColor=#000000;fillColor=#FFFFFF;fontSize=14;fontFamily=Arial;fontStyle=1" vertex="1" parent="1">
      <mxGeometry x="60" y="320" width="320" height="40" as="geometry" />
    </mxCell>

    <mxCell id="20" value="" style="shape=rectangle;whiteSpace=wrap;html=1;strokeColor=#000000;fillColor=#FFFFFF;fontSize=14;fontFamily=Arial;fontStyle=1" vertex="1" parent="1">
      <mxGeometry x="0" y="360" width="60" height="40" as="geometry" />
    </mxCell>

    <mxCell id="21" value="Health
FLOAT
NOT NULL" style="shape=rectangle;whiteSpace=wrap;html=1;strokeColor=#000000;fillColor=#FFFFFF;fontSize=14;fontFamily=Arial;fontStyle=1" vertex="1" parent="1">
      <mxGeometry x="60" y="360" width="320" height="40" as="geometry" />
    </mxCell>

    <mxCell id="22" value="" style="shape=rectangle;whiteSpace=wrap;html=1;strokeColor=#000000;fillColor=#FFFFFF;fontSize=14;fontFamily=Arial;fontStyle=1" vertex="1" parent="1">
      <mxGeometry x="0" y="400" width="60" height="40" as="geometry" />
    </mxCell>

    <mxCell id="23" value="Mana
FLOAT
NOT NULL" style="shape=rectangle;whiteSpace=wrap;html=1;strokeColor=#000000;fillColor=#FFFFFF;fontSize=14;fontFamily=Arial;fontStyle=1" vertex="1" parent="1">
      <mxGeometry x="60" y="400" width="320" height="40" as="geometry" />
    </mxCell>

    <mxCell id="24" style="strokeColor=#000000;strokeWidth=2;endArrow=none;endFill=0;" edge="1" parent="1">
      <mxGeometry relative="1" as="geometry">
        <mxPoint x="60" y="40" as="sourcePoint" />
        <mxPoint x="60" y="440" as="targetPoint" />
      </mxGeometry>
    </mxCell>

    <mxCell id="25" value="" style="shape=rectangle;whiteSpace=wrap;html=1;strokeColor=#000000;fillColor=#FFFFFF;fontSize=14;fontFamily=Arial;fontStyle=1" vertex="1" parent="1">
      <mxGeometry x="500" y="0" width="380" height="520" as="geometry" />
    </mxCell>

    <mxCell id="26" value="Wereld" style="shape=rectangle;whiteSpace=wrap;html=1;strokeColor=#000000;fillColor=#FFFFFF;fontSize=16;fontFamily=Arial;fontStyle=1;" vertex="1" parent="1">
      <mxGeometry x="500" y="0" width="380" height="40" as="geometry" />
    </mxCell>

    <mxCell id="27" value="PK" style="shape=rectangle;whiteSpace=wrap;html=1;strokeColor=#000000;fillColor=#FFFFFF;fontSize=14;fontFamily=Arial;fontStyle=1" vertex="1" parent="1">
      <mxGeometry x="500" y="40" width="60" height="40" as="geometry" />
    </mxCell>

    <mxCell id="28" value="WereldID
INT
NOT NULL, UNIQUE" style="shape=rectangle;whiteSpace=wrap;html=1;strokeColor=#000000;fillColor=#FFFFFF;fontSize=14;fontFamily=Arial;fontStyle=1" vertex="1" parent="1">
      <mxGeometry x="560" y="40" width="320" height="40" as="geometry" />
    </mxCell>

    <mxCell id="29" value="" style="shape=rectangle;whiteSpace=wrap;html=1;strokeColor=#000000;fillColor=#FFFFFF;fontSize=14;fontFamily=Arial;fontStyle=1" vertex="1" parent="1">
      <mxGeometry x="500" y="80" width="60" height="40" as="geometry" />
    </mxCell>

    <mxCell id="30" value="Naam
VARCHAR(100)
NOT NULL, UNIQUE" style="shape=rectangle;whiteSpace=wrap;html=1;strokeColor=#000000;fillColor=#FFFFFF;fontSize=14;fontFamily=Arial;fontStyle=1" vertex="1" parent="1">
      <mxGeometry x="560" y="80" width="320" height="40" as="geometry" />
    </mxCell>

    <mxCell id="31" value="" style="shape=rectangle;whiteSpace=wrap;html=1;strokeColor=#000000;fillColor=#FFFFFF;fontSize=14;fontFamily=Arial;fontStyle=1" vertex="1" parent="1">
      <mxGeometry x="500" y="120" width="60" height="40" as="geometry" />
    </mxCell>

    <mxCell id="32" value="Seed
BIGINT
NOT NULL" style="shape=rectangle;whiteSpace=wrap;html=1;strokeColor=#000000;fillColor=#FFFFFF;fontSize=14;fontFamily=Arial;fontStyle=1" vertex="1" parent="1">
      <mxGeometry x="560" y="120" width="320" height="40" as="geometry" />
    </mxCell>

    <mxCell id="33" value="" style="shape=rectangle;whiteSpace=wrap;html=1;strokeColor=#000000;fillColor=#FFFFFF;fontSize=14;fontFamily=Arial;fontStyle=1" vertex="1" parent="1">
      <mxGeometry x="500" y="160" width="60" height="40" as="geometry" />
    </mxCell>

    <mxCell id="34" value="Type
VARCHAR(50)
NOT NULL" style="shape=rectangle;whiteSpace=wrap;html=1;strokeColor=#000000;fillColor=#FFFFFF;fontSize=14;fontFamily=Arial;fontStyle=1" vertex="1" parent="1">
      <mxGeometry x="560" y="160" width="320" height="40" as="geometry" />
    </mxCell>

    <mxCell id="35" value="FK" style="shape=rectangle;whiteSpace=wrap;html=1;strokeColor=#000000;fillColor=#FFFFFF;fontSize=14;fontFamily=Arial;fontStyle=1" vertex="1" parent="1">
      <mxGeometry x="500" y="200" width="60" height="40" as="geometry" />
    </mxCell>

    <mxCell id="36" value="CreatorSpelerID
INT
UNIQUE" style="shape=rectangle;whiteSpace=wrap;html=1;strokeColor=#000000;fillColor=#FFFFFF;fontSize=14;fontFamily=Arial;fontStyle=1" vertex="1" parent="1">
      <mxGeometry x="560" y="200" width="320" height="40" as="geometry" />
    </mxCell>

    <mxCell id="37" value="" style="shape=rectangle;whiteSpace=wrap;html=1;strokeColor=#000000;fillColor=#FFFFFF;fontSize=14;fontFamily=Arial;fontStyle=1" vertex="1" parent="1">
      <mxGeometry x="500" y="240" width="60" height="40" as="geometry" />
    </mxCell>

    <mxCell id="38" value="Grootte
VARCHAR(50)" style="shape=rectangle;whiteSpace=wrap;html=1;strokeColor=#000000;fillColor=#FFFFFF;fontSize=14;fontFamily=Arial;fontStyle=1" vertex="1" parent="1">
      <mxGeometry x="560" y="240" width="320" height="40" as="geometry" />
    </mxCell>

    <mxCell id="39" value="" style="shape=rectangle;whiteSpace=wrap;html=1;strokeColor=#000000;fillColor=#FFFFFF;fontSize=14;fontFamily=Arial;fontStyle=1" vertex="1" parent="1">
      <mxGeometry x="500" y="280" width="60" height="40" as="geometry" />
    </mxCell>

    <mxCell id="40" value="Moeilijkheidsgraad
ENUM(&apos;Peaceful&apos;, &apos;Easy&apos;, &apos;Normal&apos;, &apos;Hard&apos;)
NOT NULL" style="shape=rectangle;whiteSpace=wrap;html=1;strokeColor=#000000;fillColor=#FFFFFF;fontSize=14;fontFamily=Arial;fontStyle=1" vertex="1" parent="1">
      <mxGeometry x="560" y="280" width="320" height="40" as="geometry" />
    </mxCell>

    <mxCell id="41" value="" style="shape=rectangle;whiteSpace=wrap;html=1;strokeColor=#000000;fillColor=#FFFFFF;fontSize=14;fontFamily=Arial;fontStyle=1" vertex="1" parent="1">
      <mxGeometry x="500" y="320" width="60" height="40" as="geometry" />
    </mxCell>

    <mxCell id="42" value="IsMultiplayer
BOOLEAN
NOT NULL" style="shape=rectangle;whiteSpace=wrap;html=1;strokeColor=#000000;fillColor=#FFFFFF;fontSize=14;fontFamily=Arial;fontStyle=1" vertex="1" parent="1">
      <mxGeometry x="560" y="320" width="320" height="40" as="geometry" />
    </mxCell>

    <mxCell id="43" value="" style="shape=rectangle;whiteSpace=wrap;html=1;strokeColor=#000000;fillColor=#FFFFFF;fontSize=14;fontFamily=Arial;fontStyle=1" vertex="1" parent="1">
      <mxGeometry x="500" y="360" width="60" height="40" as="geometry" />
    </mxCell>

    <mxCell id="44" value="MaxSpelers
INT" style="shape=rectangle;whiteSpace=wrap;html=1;strokeColor=#000000;fillColor=#FFFFFF;fontSize=14;fontFamily=Arial;fontStyle=1" vertex="1" parent="1">
      <mxGeometry x="560" y="360" width="320" height="40" as="geometry" />
    </mxCell>

    <mxCell id="45" value="" style="shape=rectangle;whiteSpace=wrap;html=1;strokeColor=#000000;fillColor=#FFFFFF;fontSize=14;fontFamily=Arial;fontStyle=1" vertex="1" parent="1">
      <mxGeometry x="500" y="400" width="60" height="40" as="geometry" />
    </mxCell>

    <mxCell id="46" value="Tijdsinstelling
ENUM(&apos;Dag&apos;, &apos;Nacht&apos;, &apos;Standaard&apos;)" style="shape=rectangle;whiteSpace=wrap;html=1;strokeColor=#000000;fillColor=#FFFFFF;fontSize=14;fontFamily=Arial;fontStyle=1" vertex="1" parent="1">
      <mxGeometry x="560" y="400" width="320" height="40" as="geometry" />
    </mxCell>

    <mxCell id="47" value="" style="shape=rectangle;whiteSpace=wrap;html=1;strokeColor=#000000;fillColor=#FFFFFF;fontSize=14;fontFamily=Arial;fontStyle=1" vertex="1" parent="1">
      <mxGeometry x="500" y="440" width="60" height="40" as="geometry" />
    </mxCell>

    <mxCell id="48" value="PVPEnabled
BOOLEAN
NOT NULL" style="shape=rectangle;whiteSpace=wrap;html=1;strokeColor=#000000;fillColor=#FFFFFF;fontSize=14;fontFamily=Arial;fontStyle=1" vertex="1" parent="1">
      <mxGeometry x="560" y="440" width="320" height="40" as="geometry" />
    </mxCell>

    <mxCell id="49" value="" style="shape=rectangle;whiteSpace=wrap;html=1;strokeColor=#000000;fillColor=#FFFFFF;fontSize=14;fontFamily=Arial;fontStyle=1" vertex="1" parent="1">
      <mxGeometry x="500" y="480" width="60" height="40" as="geometry" />
    </mxCell>

    <mxCell id="50" value="SpawnBeschermd
BOOLEAN
NOT NULL" style="shape=rectangle;whiteSpace=wrap;html=1;strokeColor=#000000;fillColor=#FFFFFF;fontSize=14;fontFamily=Arial;fontStyle=1" vertex="1" parent="1">
      <mxGeometry x="560" y="480" width="320" height="40" as="geometry" />
    </mxCell>

    <mxCell id="51" style="strokeColor=#000000;strokeWidth=2;endArrow=none;endFill=0;" edge="1" parent="1">
      <mxGeometry relative="1" as="geometry">
        <mxPoint x="560" y="40" as="sourcePoint" />
        <mxPoint x="560" y="520" as="targetPoint" />
      </mxGeometry>
    </mxCell>

    <mxCell id="52" value="" style="shape=rectangle;whiteSpace=wrap;html=1;strokeColor=#000000;fillColor=#FFFFFF;fontSize=14;fontFamily=Arial;fontStyle=1" vertex="1" parent="1">
      <mxGeometry x="1000" y="0" width="380" height="240" as="geometry" />
    </mxCell>

    <mxCell id="53" value="Item" style="shape=rectangle;whiteSpace=wrap;html=1;strokeColor=#000000;fillColor=#FFFFFF;fontSize=16;fontFamily=Arial;fontStyle=1;" vertex="1" parent="1">
      <mxGeometry x="1000" y="0" width="380" height="40" as="geometry" />
    </mxCell>

    <mxCell id="54" value="PK" style="shape=rectangle;whiteSpace=wrap;html=1;strokeColor=#000000;fillColor=#FFFFFF;fontSize=14;fontFamily=Arial;fontStyle=1" vertex="1" parent="1">
      <mxGeometry x="1000" y="40" width="60" height="40" as="geometry" />
    </mxCell>

    <mxCell id="55" value="ItemID
INT
NOT NULL, UNIQUE" style="shape=rectangle;whiteSpace=wrap;html=1;strokeColor=#000000;fillColor=#FFFFFF;fontSize=14;fontFamily=Arial;fontStyle=1" vertex="1" parent="1">
      <mxGeometry x="1060" y="40" width="320" height="40" as="geometry" />
    </mxCell>

    <mxCell id="56" value="" style="shape=rectangle;whiteSpace=wrap;html=1;strokeColor=#000000;fillColor=#FFFFFF;fontSize=14;fontFamily=Arial;fontStyle=1" vertex="1" parent="1">
      <mxGeometry x="1000" y="80" width="60" height="40" as="geometry" />
    </mxCell>

    <mxCell id="57" value="Naam
VARCHAR(100)
NOT NULL" style="shape=rectangle;whiteSpace=wrap;html=1;strokeColor=#000000;fillColor=#FFFFFF;fontSize=14;fontFamily=Arial;fontStyle=1" vertex="1" parent="1">
      <mxGeometry x="1060" y="80" width="320" height="40" as="geometry" />
    </mxCell>

    <mxCell id="58" value="" style="shape=rectangle;whiteSpace=wrap;html=1;strokeColor=#000000;fillColor=#FFFFFF;fontSize=14;fontFamily=Arial;fontStyle=1" vertex="1" parent="1">
      <mxGeometry x="1000" y="120" width="60" height="40" as="geometry" />
    </mxCell>

    <mxCell id="59" value="ItemType
VARCHAR(50)
NOT NULL" style="shape=rectangle;whiteSpace=wrap;html=1;strokeColor=#000000;fillColor=#FFFFFF;fontSize=14;fontFamily=Arial;fontStyle=1" vertex="1" parent="1">
      <mxGeometry x="1060" y="120" width="320" height="40" as="geometry" />
    </mxCell>

    <mxCell id="60" value="" style="shape=rectangle;whiteSpace=wrap;html=1;strokeColor=#000000;fillColor=#FFFFFF;fontSize=14;fontFamily=Arial;fontStyle=1" vertex="1" parent="1">
      <mxGeometry x="1000" y="160" width="60" height="40" as="geometry" />
    </mxCell>

    <mxCell id="61" value="MaxStack
INT
NOT NULL" style="shape=rectangle;whiteSpace=wrap;html=1;strokeColor=#000000;fillColor=#FFFFFF;fontSize=14;fontFamily=Arial;fontStyle=1" vertex="1" parent="1">
      <mxGeometry x="1060" y="160" width="320" height="40" as="geometry" />
    </mxCell>

    <mxCell id="62" value="" style="shape=rectangle;whiteSpace=wrap;html=1;strokeColor=#000000;fillColor=#FFFFFF;fontSize=14;fontFamily=Arial;fontStyle=1" vertex="1" parent="1">
      <mxGeometry x="1000" y="200" width="60" height="40" as="geometry" />
    </mxCell>

    <mxCell id="63" value="Durability
INT" style="shape=rectangle;whiteSpace=wrap;html=1;strokeColor=#000000;fillColor=#FFFFFF;fontSize=14;fontFamily=Arial;fontStyle=1" vertex="1" parent="1">
      <mxGeometry x="1060" y="200" width="320" height="40" as="geometry" />
    </mxCell>

    <mxCell id="64" style="strokeColor=#000000;strokeWidth=2;endArrow=none;endFill=0;" edge="1" parent="1">
      <mxGeometry relative="1" as="geometry">
        <mxPoint x="1060" y="40" as="sourcePoint" />
        <mxPoint x="1060" y="240" as="targetPoint" />
      </mxGeometry>
    </mxCell>

    <mxCell id="65" value="" style="shape=rectangle;whiteSpace=wrap;html=1;strokeColor=#000000;fillColor=#FFFFFF;fontSize=14;fontFamily=Arial;fontStyle=1" vertex="1" parent="1">
      <mxGeometry x="1500" y="0" width="380" height="240" as="geometry" />
    </mxCell>

    <mxCell id="66" value="SpelerInventaris" style="shape=rectangle;whiteSpace=wrap;html=1;strokeColor=#000000;fillColor=#FFFFFF;fontSize=16;fontFamily=Arial;fontStyle=1;" vertex="1" parent="1">
      <mxGeometry x="1500" y="0" width="380" height="40" as="geometry" />
    </mxCell>

    <mxCell id="67" value="PK" style="shape=rectangle;whiteSpace=wrap;html=1;strokeColor=#000000;fillColor=#FFFFFF;fontSize=14;fontFamily=Arial;fontStyle=1" vertex="1" parent="1">
      <mxGeometry x="1500" y="40" width="60" height="40" as="geometry" />
    </mxCell>

    <mxCell id="68" value="InventarisID
INT
NOT NULL, UNIQUE" style="shape=rectangle;whiteSpace=wrap;html=1;strokeColor=#000000;fillColor=#FFFFFF;fontSize=14;fontFamily=Arial;fontStyle=1" vertex="1" parent="1">
      <mxGeometry x="1560" y="40" width="320" height="40" as="geometry" />
    </mxCell>

    <mxCell id="69" value="FK" style="shape=rectangle;whiteSpace=wrap;html=1;strokeColor=#000000;fillColor=#FFFFFF;fontSize=14;fontFamily=Arial;fontStyle=1" vertex="1" parent="1">
      <mxGeometry x="1500" y="80" width="60" height="40" as="geometry" />
    </mxCell>

    <mxCell id="70" value="SpelerID
INT
NOT NULL, UNIQUE" style="shape=rectangle;whiteSpace=wrap;html=1;strokeColor=#000000;fillColor=#FFFFFF;fontSize=14;fontFamily=Arial;fontStyle=1" vertex="1" parent="1">
      <mxGeometry x="1560" y="80" width="320" height="40" as="geometry" />
    </mxCell>

    <mxCell id="71" value="FK" style="shape=rectangle;whiteSpace=wrap;html=1;strokeColor=#000000;fillColor=#FFFFFF;fontSize=14;fontFamily=Arial;fontStyle=1" vertex="1" parent="1">
      <mxGeometry x="1500" y="120" width="60" height="40" as="geometry" />
    </mxCell>

    <mxCell id="72" value="ItemID
INT
NOT NULL" style="shape=rectangle;whiteSpace=wrap;html=1;strokeColor=#000000;fillColor=#FFFFFF;fontSize=14;fontFamily=Arial;fontStyle=1" vertex="1" parent="1">
      <mxGeometry x="1560" y="120" width="320" height="40" as="geometry" />
    </mxCell>

    <mxCell id="73" value="" style="shape=rectangle;whiteSpace=wrap;html=1;strokeColor=#000000;fillColor=#FFFFFF;fontSize=14;fontFamily=Arial;fontStyle=1" vertex="1" parent="1">
      <mxGeometry x="1500" y="160" width="60" height="40" as="geometry" />
    </mxCell>

    <mxCell id="74" value="Aantal
INT
NOT NULL" style="shape=rectangle;whiteSpace=wrap;html=1;strokeColor=#000000;fillColor=#FFFFFF;fontSize=14;fontFamily=Arial;fontStyle=1" vertex="1" parent="1">
      <mxGeometry x="1560" y="160" width="320" height="40" as="geometry" />
    </mxCell>

    <mxCell id="75" value="" style="shape=rectangle;whiteSpace=wrap;html=1;strokeColor=#000000;fillColor=#FFFFFF;fontSize=14;fontFamily=Arial;fontStyle=1" vertex="1" parent="1">
      <mxGeometry x="1500" y="200" width="60" height="40" as="geometry" />
    </mxCell>

    <mxCell id="76" value="PositieInInventaris
INT
NOT NULL" style="shape=rectangle;whiteSpace=wrap;html=1;strokeColor=#000000;fillColor=#FFFFFF;fontSize=14;fontFamily=Arial;fontStyle=1" vertex="1" parent="1">
      <mxGeometry x="1560" y="200" width="320" height="40" as="geometry" />
    </mxCell>

    <mxCell id="77" style="strokeColor=#000000;strokeWidth=2;endArrow=none;endFill=0;" edge="1" parent="1">
      <mxGeometry relative="1" as="geometry">
        <mxPoint x="1560" y="40" as="sourcePoint" />
        <mxPoint x="1560" y="240" as="targetPoint" />
      </mxGeometry>
    </mxCell>

    <mxCell id="78" value="" style="shape=rectangle;whiteSpace=wrap;html=1;strokeColor=#000000;fillColor=#FFFFFF;fontSize=14;fontFamily=Arial;fontStyle=1" vertex="1" parent="1">
      <mxGeometry x="0" y="620" width="380" height="360" as="geometry" />
    </mxCell>

    <mxCell id="79" value="Positie" style="shape=rectangle;whiteSpace=wrap;html=1;strokeColor=#000000;fillColor=#FFFFFF;fontSize=16;fontFamily=Arial;fontStyle=1;" vertex="1" parent="1">
      <mxGeometry x="0" y="620" width="380" height="40" as="geometry" />
    </mxCell>

    <mxCell id="80" value="PK" style="shape=rectangle;whiteSpace=wrap;html=1;strokeColor=#000000;fillColor=#FFFFFF;fontSize=14;fontFamily=Arial;fontStyle=1" vertex="1" parent="1">
      <mxGeometry x="0" y="660" width="60" height="40" as="geometry" />
    </mxCell>

    <mxCell id="81" value="PositieID
INT
NOT NULL, UNIQUE" style="shape=rectangle;whiteSpace=wrap;html=1;strokeColor=#000000;fillColor=#FFFFFF;fontSize=14;fontFamily=Arial;fontStyle=1" vertex="1" parent="1">
      <mxGeometry x="60" y="660" width="320" height="40" as="geometry" />
    </mxCell>

    <mxCell id="82" value="FK" style="shape=rectangle;whiteSpace=wrap;html=1;strokeColor=#000000;fillColor=#FFFFFF;fontSize=14;fontFamily=Arial;fontStyle=1" vertex="1" parent="1">
      <mxGeometry x="0" y="700" width="60" height="40" as="geometry" />
    </mxCell>

    <mxCell id="83" value="SpelerID
INT
NOT NULL" style="shape=rectangle;whiteSpace=wrap;html=1;strokeColor=#000000;fillColor=#FFFFFF;fontSize=14;fontFamily=Arial;fontStyle=1" vertex="1" parent="1">
      <mxGeometry x="60" y="700" width="320" height="40" as="geometry" />
    </mxCell>

    <mxCell id="84" value="FK" style="shape=rectangle;whiteSpace=wrap;html=1;strokeColor=#000000;fillColor=#FFFFFF;fontSize=14;fontFamily=Arial;fontStyle=1" vertex="1" parent="1">
      <mxGeometry x="0" y="740" width="60" height="40" as="geometry" />
    </mxCell>

    <mxCell id="85" value="WereldID
INT
NOT NULL" style="shape=rectangle;whiteSpace=wrap;html=1;strokeColor=#000000;fillColor=#FFFFFF;fontSize=14;fontFamily=Arial;fontStyle=1" vertex="1" parent="1">
      <mxGeometry x="60" y="740" width="320" height="40" as="geometry" />
    </mxCell>

    <mxCell id="86" value="" style="shape=rectangle;whiteSpace=wrap;html=1;strokeColor=#000000;fillColor=#FFFFFF;fontSize=14;fontFamily=Arial;fontStyle=1" vertex="1" parent="1">
      <mxGeometry x="0" y="780" width="60" height="40" as="geometry" />
    </mxCell>

    <mxCell id="87" value="X
FLOAT
NOT NULL" style="shape=rectangle;whiteSpace=wrap;html=1;strokeColor=#000000;fillColor=#FFFFFF;fontSize=14;fontFamily=Arial;fontStyle=1" vertex="1" parent="1">
      <mxGeometry x="60" y="780" width="320" height="40" as="geometry" />
    </mxCell>

    <mxCell id="88" value="" style="shape=rectangle;whiteSpace=wrap;html=1;strokeColor=#000000;fillColor=#FFFFFF;fontSize=14;fontFamily=Arial;fontStyle=1" vertex="1" parent="1">
      <mxGeometry x="0" y="820" width="60" height="40" as="geometry" />
    </mxCell>

    <mxCell id="89" value="Y
FLOAT
NOT NULL" style="shape=rectangle;whiteSpace=wrap;html=1;strokeColor=#000000;fillColor=#FFFFFF;fontSize=14;fontFamily=Arial;fontStyle=1" vertex="1" parent="1">
      <mxGeometry x="60" y="820" width="320" height="40" as="geometry" />
    </mxCell>

    <mxCell id="90" value="" style="shape=rectangle;whiteSpace=wrap;html=1;strokeColor=#000000;fillColor=#FFFFFF;fontSize=14;fontFamily=Arial;fontStyle=1" vertex="1" parent="1">
      <mxGeometry x="0" y="860" width="60" height="40" as="geometry" />
    </mxCell>

    <mxCell id="91" value="Z
FLOAT
NOT NULL" style="shape=rectangle;whiteSpace=wrap;html=1;strokeColor=#000000;fillColor=#FFFFFF;fontSize=14;fontFamily=Arial;fontStyle=1" vertex="1" parent="1">
      <mxGeometry x="60" y="860" width="320" height="40" as="geometry" />
    </mxCell>

    <mxCell id="92" value="" style="shape=rectangle;whiteSpace=wrap;html=1;strokeColor=#000000;fillColor=#FFFFFF;fontSize=14;fontFamily=Arial;fontStyle=1" vertex="1" parent="1">
      <mxGeometry x="0" y="900" width="60" height="40" as="geometry" />
    </mxCell>

    <mxCell id="93" value="Rotatie
FLOAT" style="shape=rectangle;whiteSpace=wrap;html=1;strokeColor=#000000;fillColor=#FFFFFF;fontSize=14;fontFamily=Arial;fontStyle=1" vertex="1" parent="1">
      <mxGeometry x="60" y="900" width="320" height="40" as="geometry" />
    </mxCell>

    <mxCell id="94" value="" style="shape=rectangle;whiteSpace=wrap;html=1;strokeColor=#000000;fillColor=#FFFFFF;fontSize=14;fontFamily=Arial;fontStyle=1" vertex="1" parent="1">
      <mxGeometry x="0" y="940" width="60" height="40" as="geometry" />
    </mxCell>

    <mxCell id="95" value="Timestamp
DATETIME
NOT NULL" style="shape=rectangle;whiteSpace=wrap;html=1;strokeColor=#000000;fillColor=#FFFFFF;fontSize=14;fontFamily=Arial;fontStyle=1" vertex="1" parent="1">
      <mxGeometry x="60" y="940" width="320" height="40" as="geometry" />
    </mxCell>

    <mxCell id="96" style="strokeColor=#000000;strokeWidth=2;endArrow=none;endFill=0;" edge="1" parent="1">
      <mxGeometry relative="1" as="geometry">
        <mxPoint x="60" y="660" as="sourcePoint" />
        <mxPoint x="60" y="980" as="targetPoint" />
      </mxGeometry>
    </mxCell>

    <mxCell id="97" value="" style="shape=rectangle;whiteSpace=wrap;html=1;strokeColor=#000000;fillColor=#FFFFFF;fontSize=14;fontFamily=Arial;fontStyle=1" vertex="1" parent="1">
      <mxGeometry x="500" y="620" width="380" height="280" as="geometry" />
    </mxCell>

    <mxCell id="98" value="Ban" style="shape=rectangle;whiteSpace=wrap;html=1;strokeColor=#000000;fillColor=#FFFFFF;fontSize=16;fontFamily=Arial;fontStyle=1;" vertex="1" parent="1">
      <mxGeometry x="500" y="620" width="380" height="40" as="geometry" />
    </mxCell>

    <mxCell id="99" value="PK" style="shape=rectangle;whiteSpace=wrap;html=1;strokeColor=#000000;fillColor=#FFFFFF;fontSize=14;fontFamily=Arial;fontStyle=1" vertex="1" parent="1">
      <mxGeometry x="500" y="660" width="60" height="40" as="geometry" />
    </mxCell>

    <mxCell id="100" value="BanID
INT
NOT NULL, UNIQUE" style="shape=rectangle;whiteSpace=wrap;html=1;strokeColor=#000000;fillColor=#FFFFFF;fontSize=14;fontFamily=Arial;fontStyle=1" vertex="1" parent="1">
      <mxGeometry x="560" y="660" width="320" height="40" as="geometry" />
    </mxCell>

    <mxCell id="101" value="FK" style="shape=rectangle;whiteSpace=wrap;html=1;strokeColor=#000000;fillColor=#FFFFFF;fontSize=14;fontFamily=Arial;fontStyle=1" vertex="1" parent="1">
      <mxGeometry x="500" y="700" width="60" height="40" as="geometry" />
    </mxCell>

    <mxCell id="102" value="SpelerID
INT
NOT NULL" style="shape=rectangle;whiteSpace=wrap;html=1;strokeColor=#000000;fillColor=#FFFFFF;fontSize=14;fontFamily=Arial;fontStyle=1" vertex="1" parent="1">
      <mxGeometry x="560" y="700" width="320" height="40" as="geometry" />
    </mxCell>

    <mxCell id="103" value="" style="shape=rectangle;whiteSpace=wrap;html=1;strokeColor=#000000;fillColor=#FFFFFF;fontSize=14;fontFamily=Arial;fontStyle=1" vertex="1" parent="1">
      <mxGeometry x="500" y="740" width="60" height="40" as="geometry" />
    </mxCell>

    <mxCell id="104" value="Reden
VARCHAR(255)
NOT NULL" style="shape=rectangle;whiteSpace=wrap;html=1;strokeColor=#000000;fillColor=#FFFFFF;fontSize=14;fontFamily=Arial;fontStyle=1" vertex="1" parent="1">
      <mxGeometry x="560" y="740" width="320" height="40" as="geometry" />
    </mxCell>

    <mxCell id="105" value="" style="shape=rectangle;whiteSpace=wrap;html=1;strokeColor=#000000;fillColor=#FFFFFF;fontSize=14;fontFamily=Arial;fontStyle=1" vertex="1" parent="1">
      <mxGeometry x="500" y="780" width="60" height="40" as="geometry" />
    </mxCell>

    <mxCell id="106" value="StartDatum
DATETIME
NOT NULL" style="shape=rectangle;whiteSpace=wrap;html=1;strokeColor=#000000;fillColor=#FFFFFF;fontSize=14;fontFamily=Arial;fontStyle=1" vertex="1" parent="1">
      <mxGeometry x="560" y="780" width="320" height="40" as="geometry" />
    </mxCell>

    <mxCell id="107" value="" style="shape=rectangle;whiteSpace=wrap;html=1;strokeColor=#000000;fillColor=#FFFFFF;fontSize=14;fontFamily=Arial;fontStyle=1" vertex="1" parent="1">
      <mxGeometry x="500" y="820" width="60" height="40" as="geometry" />
    </mxCell>

    <mxCell id="108" value="EindDatum
DATETIME" style="shape=rectangle;whiteSpace=wrap;html=1;strokeColor=#000000;fillColor=#FFFFFF;fontSize=14;fontFamily=Arial;fontStyle=1" vertex="1" parent="1">
      <mxGeometry x="560" y="820" width="320" height="40" as="geometry" />
    </mxCell>

    <mxCell id="109" value="" style="shape=rectangle;whiteSpace=wrap;html=1;strokeColor=#000000;fillColor=#FFFFFF;fontSize=14;fontFamily=Arial;fontStyle=1" vertex="1" parent="1">
      <mxGeometry x="500" y="860" width="60" height="40" as="geometry" />
    </mxCell>

    <mxCell id="110" value="Permanent
BOOLEAN
NOT NULL" style="shape=rectangle;whiteSpace=wrap;html=1;strokeColor=#000000;fillColor=#FFFFFF;fontSize=14;fontFamily=Arial;fontStyle=1" vertex="1" parent="1">
      <mxGeometry x="560" y="860" width="320" height="40" as="geometry" />
    </mxCell>

    <mxCell id="111" style="strokeColor=#000000;strokeWidth=2;endArrow=none;endFill=0;" edge="1" parent="1">
      <mxGeometry relative="1" as="geometry">
        <mxPoint x="560" y="660" as="sourcePoint" />
        <mxPoint x="560" y="900" as="targetPoint" />
      </mxGeometry>
    </mxCell>

    <mxCell id="112" value="" style="shape=rectangle;whiteSpace=wrap;html=1;strokeColor=#000000;fillColor=#FFFFFF;fontSize=14;fontFamily=Arial;fontStyle=1" vertex="1" parent="1">
      <mxGeometry x="1000" y="620" width="380" height="200" as="geometry" />
    </mxCell>

    <mxCell id="113" value="CraftingRecept" style="shape=rectangle;whiteSpace=wrap;html=1;strokeColor=#000000;fillColor=#FFFFFF;fontSize=16;fontFamily=Arial;fontStyle=1;" vertex="1" parent="1">
      <mxGeometry x="1000" y="620" width="380" height="40" as="geometry" />
    </mxCell>

    <mxCell id="114" value="PK" style="shape=rectangle;whiteSpace=wrap;html=1;strokeColor=#000000;fillColor=#FFFFFF;fontSize=14;fontFamily=Arial;fontStyle=1" vertex="1" parent="1">
      <mxGeometry x="1000" y="660" width="60" height="40" as="geometry" />
    </mxCell>

    <mxCell id="115" value="ReceptID
INT
NOT NULL, UNIQUE" style="shape=rectangle;whiteSpace=wrap;html=1;strokeColor=#000000;fillColor=#FFFFFF;fontSize=14;fontFamily=Arial;fontStyle=1" vertex="1" parent="1">
      <mxGeometry x="1060" y="660" width="320" height="40" as="geometry" />
    </mxCell>

    <mxCell id="116" value="FK" style="shape=rectangle;whiteSpace=wrap;html=1;strokeColor=#000000;fillColor=#FFFFFF;fontSize=14;fontFamily=Arial;fontStyle=1" vertex="1" parent="1">
      <mxGeometry x="1000" y="700" width="60" height="40" as="geometry" />
    </mxCell>

    <mxCell id="117" value="ResultaatItemID
INT
NOT NULL" style="shape=rectangle;whiteSpace=wrap;html=1;strokeColor=#000000;fillColor=#FFFFFF;fontSize=14;fontFamily=Arial;fontStyle=1" vertex="1" parent="1">
      <mxGeometry x="1060" y="700" width="320" height="40" as="geometry" />
    </mxCell>

    <mxCell id="118" value="" style="shape=rectangle;whiteSpace=wrap;html=1;strokeColor=#000000;fillColor=#FFFFFF;fontSize=14;fontFamily=Arial;fontStyle=1" vertex="1" parent="1">
      <mxGeometry x="1000" y="740" width="60" height="40" as="geometry" />
    </mxCell>

    <mxCell id="119" value="Aantal
INT
NOT NULL" style="shape=rectangle;whiteSpace=wrap;html=1;strokeColor=#000000;fillColor=#FFFFFF;fontSize=14;fontFamily=Arial;fontStyle=1" vertex="1" parent="1">
      <mxGeometry x="1060" y="740" width="320" height="40" as="geometry" />
    </mxCell>

    <mxCell id="120" value="" style="shape=rectangle;whiteSpace=wrap;html=1;strokeColor=#000000;fillColor=#FFFFFF;fontSize=14;fontFamily=Arial;fontStyle=1" vertex="1" parent="1">
      <mxGeometry x="1000" y="780" width="60" height="40" as="geometry" />
    </mxCell>

    <mxCell id="121" value="Beschrijving
TEXT" style="shape=rectangle;whiteSpace=wrap;html=1;strokeColor=#000000;fillColor=#FFFFFF;fontSize=14;fontFamily=Arial;fontStyle=1" vertex="1" parent="1">
      <mxGeometry x="1060" y="780" width="320" height="40" as="geometry" />
    </mxCell>

    <mxCell id="122" style="strokeColor=#000000;strokeWidth=2;endArrow=none;endFill=0;" edge="1" parent="1">
      <mxGeometry relative="1" as="geometry">
        <mxPoint x="1060" y="660" as="sourcePoint" />
        <mxPoint x="1060" y="820" as="targetPoint" />
      </mxGeometry>
    </mxCell>

    <mxCell id="123" value="" style="shape=rectangle;whiteSpace=wrap;html=1;strokeColor=#000000;fillColor=#FFFFFF;fontSize=14;fontFamily=Arial;fontStyle=1" vertex="1" parent="1">
      <mxGeometry x="1500" y="620" width="380" height="200" as="geometry" />
    </mxCell>

    <mxCell id="124" value="CraftingReceptIngredient" style="shape=rectangle;whiteSpace=wrap;html=1;strokeColor=#000000;fillColor=#FFFFFF;fontSize=16;fontFamily=Arial;fontStyle=1;" vertex="1" parent="1">
      <mxGeometry x="1500" y="620" width="380" height="40" as="geometry" />
    </mxCell>

    <mxCell id="125" value="PK" style="shape=rectangle;whiteSpace=wrap;html=1;strokeColor=#000000;fillColor=#FFFFFF;fontSize=14;fontFamily=Arial;fontStyle=1" vertex="1" parent="1">
      <mxGeometry x="1500" y="660" width="60" height="40" as="geometry" />
    </mxCell>

    <mxCell id="126" value="ReceptIngredientID
INT
NOT NULL, UNIQUE" style="shape=rectangle;whiteSpace=wrap;html=1;strokeColor=#000000;fillColor=#FFFFFF;fontSize=14;fontFamily=Arial;fontStyle=1" vertex="1" parent="1">
      <mxGeometry x="1560" y="660" width="320" height="40" as="geometry" />
    </mxCell>

    <mxCell id="127" value="FK" style="shape=rectangle;whiteSpace=wrap;html=1;strokeColor=#000000;fillColor=#FFFFFF;fontSize=14;fontFamily=Arial;fontStyle=1" vertex="1" parent="1">
      <mxGeometry x="1500" y="700" width="60" height="40" as="geometry" />
    </mxCell>

    <mxCell id="128" value="ReceptID
INT
NOT NULL" style="shape=rectangle;whiteSpace=wrap;html=1;strokeColor=#000000;fillColor=#FFFFFF;fontSize=14;fontFamily=Arial;fontStyle=1" vertex="1" parent="1">
      <mxGeometry x="1560" y="700" width="320" height="40" as="geometry" />
    </mxCell>

    <mxCell id="129" value="FK" style="shape=rectangle;whiteSpace=wrap;html=1;strokeColor=#000000;fillColor=#FFFFFF;fontSize=14;fontFamily=Arial;fontStyle=1" vertex="1" parent="1">
      <mxGeometry x="1500" y="740" width="60" height="40" as="geometry" />
    </mxCell>

    <mxCell id="130" value="ItemID
INT
NOT NULL" style="shape=rectangle;whiteSpace=wrap;html=1;strokeColor=#000000;fillColor=#FFFFFF;fontSize=14;fontFamily=Arial;fontStyle=1" vertex="1" parent="1">
      <mxGeometry x="1560" y="740" width="320" height="40" as="geometry" />
    </mxCell>

    <mxCell id="131" value="" style="shape=rectangle;whiteSpace=wrap;html=1;strokeColor=#000000;fillColor=#FFFFFF;fontSize=14;fontFamily=Arial;fontStyle=1" vertex="1" parent="1">
      <mxGeometry x="1500" y="780" width="60" height="40" as="geometry" />
    </mxCell>

    <mxCell id="132" value="Aantal
INT
NOT NULL" style="shape=rectangle;whiteSpace=wrap;html=1;strokeColor=#000000;fillColor=#FFFFFF;fontSize=14;fontFamily=Arial;fontStyle=1" vertex="1" parent="1">
      <mxGeometry x="1560" y="780" width="320" height="40" as="geometry" />
    </mxCell>

    <mxCell id="133" style="strokeColor=#000000;strokeWidth=2;endArrow=none;endFill=0;" edge="1" parent="1">
      <mxGeometry relative="1" as="geometry">
        <mxPoint x="1560" y="660" as="sourcePoint" />
        <mxPoint x="1560" y="820" as="targetPoint" />
      </mxGeometry>
    </mxCell>

    <mxCell id="134" value="" style="shape=rectangle;whiteSpace=wrap;html=1;strokeColor=#000000;fillColor=#FFFFFF;fontSize=14;fontFamily=Arial;fontStyle=1" vertex="1" parent="1">
      <mxGeometry x="0" y="1080" width="380" height="360" as="geometry" />
    </mxCell>

    <mxCell id="135" value="Structuur" style="shape=rectangle;whiteSpace=wrap;html=1;strokeColor=#000000;fillColor=#FFFFFF;fontSize=16;fontFamily=Arial;fontStyle=1;" vertex="1" parent="1">
      <mxGeometry x="0" y="1080" width="380" height="40" as="geometry" />
    </mxCell>

    <mxCell id="136" value="PK" style="shape=rectangle;whiteSpace=wrap;html=1;strokeColor=#000000;fillColor=#FFFFFF;fontSize=14;fontFamily=Arial;fontStyle=1" vertex="1" parent="1">
      <mxGeometry x="0" y="1120" width="60" height="40" as="geometry" />
    </mxCell>

    <mxCell id="137" value="StructuurID
INT
NOT NULL, UNIQUE" style="shape=rectangle;whiteSpace=wrap;html=1;strokeColor=#000000;fillColor=#FFFFFF;fontSize=14;fontFamily=Arial;fontStyle=1" vertex="1" parent="1">
      <mxGeometry x="60" y="1120" width="320" height="40" as="geometry" />
    </mxCell>

    <mxCell id="138" value="FK" style="shape=rectangle;whiteSpace=wrap;html=1;strokeColor=#000000;fillColor=#FFFFFF;fontSize=14;fontFamily=Arial;fontStyle=1" vertex="1" parent="1">
      <mxGeometry x="0" y="1160" width="60" height="40" as="geometry" />
    </mxCell>

    <mxCell id="139" value="WereldID
INT
NOT NULL" style="shape=rectangle;whiteSpace=wrap;html=1;strokeColor=#000000;fillColor=#FFFFFF;fontSize=14;fontFamily=Arial;fontStyle=1" vertex="1" parent="1">
      <mxGeometry x="60" y="1160" width="320" height="40" as="geometry" />
    </mxCell>

    <mxCell id="140" value="" style="shape=rectangle;whiteSpace=wrap;html=1;strokeColor=#000000;fillColor=#FFFFFF;fontSize=14;fontFamily=Arial;fontStyle=1" vertex="1" parent="1">
      <mxGeometry x="0" y="1200" width="60" height="40" as="geometry" />
    </mxCell>

    <mxCell id="141" value="Naam
VARCHAR(100)
NOT NULL" style="shape=rectangle;whiteSpace=wrap;html=1;strokeColor=#000000;fillColor=#FFFFFF;fontSize=14;fontFamily=Arial;fontStyle=1" vertex="1" parent="1">
      <mxGeometry x="60" y="1200" width="320" height="40" as="geometry" />
    </mxCell>

    <mxCell id="142" value="FK" style="shape=rectangle;whiteSpace=wrap;html=1;strokeColor=#000000;fillColor=#FFFFFF;fontSize=14;fontFamily=Arial;fontStyle=1" vertex="1" parent="1">
      <mxGeometry x="0" y="1240" width="60" height="40" as="geometry" />
    </mxCell>

    <mxCell id="143" value="MakerSpelerID
INT
NOT NULL" style="shape=rectangle;whiteSpace=wrap;html=1;strokeColor=#000000;fillColor=#FFFFFF;fontSize=14;fontFamily=Arial;fontStyle=1" vertex="1" parent="1">
      <mxGeometry x="60" y="1240" width="320" height="40" as="geometry" />
    </mxCell>

    <mxCell id="144" value="" style="shape=rectangle;whiteSpace=wrap;html=1;strokeColor=#000000;fillColor=#FFFFFF;fontSize=14;fontFamily=Arial;fontStyle=1" vertex="1" parent="1">
      <mxGeometry x="0" y="1280" width="60" height="40" as="geometry" />
    </mxCell>

    <mxCell id="145" value="LocatieX
FLOAT
NOT NULL" style="shape=rectangle;whiteSpace=wrap;html=1;strokeColor=#000000;fillColor=#FFFFFF;fontSize=14;fontFamily=Arial;fontStyle=1" vertex="1" parent="1">
      <mxGeometry x="60" y="1280" width="320" height="40" as="geometry" />
    </mxCell>

    <mxCell id="146" value="" style="shape=rectangle;whiteSpace=wrap;html=1;strokeColor=#000000;fillColor=#FFFFFF;fontSize=14;fontFamily=Arial;fontStyle=1" vertex="1" parent="1">
      <mxGeometry x="0" y="1320" width="60" height="40" as="geometry" />
    </mxCell>

    <mxCell id="147" value="LocatieY
FLOAT
NOT NULL" style="shape=rectangle;whiteSpace=wrap;html=1;strokeColor=#000000;fillColor=#FFFFFF;fontSize=14;fontFamily=Arial;fontStyle=1" vertex="1" parent="1">
      <mxGeometry x="60" y="1320" width="320" height="40" as="geometry" />
    </mxCell>

    <mxCell id="148" value="" style="shape=rectangle;whiteSpace=wrap;html=1;strokeColor=#000000;fillColor=#FFFFFF;fontSize=14;fontFamily=Arial;fontStyle=1" vertex="1" parent="1">
      <mxGeometry x="0" y="1360" width="60" height="40" as="geometry" />
    </mxCell>

    <mxCell id="149" value="LocatieZ
FLOAT
NOT NULL" style="shape=rectangle;whiteSpace=wrap;html=1;strokeColor=#000000;fillColor=#FFFFFF;fontSize=14;fontFamily=Arial;fontStyle=1" vertex="1" parent="1">
      <mxGeometry x="60" y="1360" width="320" height="40" as="geometry" />
    </mxCell>

    <mxCell id="150" value="" style="shape=rectangle;whiteSpace=wrap;html=1;strokeColor=#000000;fillColor=#FFFFFF;fontSize=14;fontFamily=Arial;fontStyle=1" vertex="1" parent="1">
      <mxGeometry x="0" y="1400" width="60" height="40" as="geometry" />
    </mxCell>

    <mxCell id="151" value="DatumGemaakt
DATETIME
NOT NULL" style="shape=rectangle;whiteSpace=wrap;html=1;strokeColor=#000000;fillColor=#FFFFFF;fontSize=14;fontFamily=Arial;fontStyle=1" vertex="1" parent="1">
      <mxGeometry x="60" y="1400" width="320" height="40" as="geometry" />
    </mxCell>

    <mxCell id="152" style="strokeColor=#000000;strokeWidth=2;endArrow=none;endFill=0;" edge="1" parent="1">
      <mxGeometry relative="1" as="geometry">
        <mxPoint x="60" y="1120" as="sourcePoint" />
        <mxPoint x="60" y="1440" as="targetPoint" />
      </mxGeometry>
    </mxCell>

    <mxCell id="153" value="" style="shape=rectangle;whiteSpace=wrap;html=1;strokeColor=#000000;fillColor=#FFFFFF;fontSize=14;fontFamily=Arial;fontStyle=1" vertex="1" parent="1">
      <mxGeometry x="500" y="1080" width="380" height="160" as="geometry" />
    </mxCell>

    <mxCell id="154" value="Achievement" style="shape=rectangle;whiteSpace=wrap;html=1;strokeColor=#000000;fillColor=#FFFFFF;fontSize=16;fontFamily=Arial;fontStyle=1;" vertex="1" parent="1">
      <mxGeometry x="500" y="1080" width="380" height="40" as="geometry" />
    </mxCell>

    <mxCell id="155" value="PK" style="shape=rectangle;whiteSpace=wrap;html=1;strokeColor=#000000;fillColor=#FFFFFF;fontSize=14;fontFamily=Arial;fontStyle=1" vertex="1" parent="1">
      <mxGeometry x="500" y="1120" width="60" height="40" as="geometry" />
    </mxCell>

    <mxCell id="156" value="AchievementID
INT
NOT NULL, UNIQUE" style="shape=rectangle;whiteSpace=wrap;html=1;strokeColor=#000000;fillColor=#FFFFFF;fontSize=14;fontFamily=Arial;fontStyle=1" vertex="1" parent="1">
      <mxGeometry x="560" y="1120" width="320" height="40" as="geometry" />
    </mxCell>

    <mxCell id="157" value="" style="shape=rectangle;whiteSpace=wrap;html=1;strokeColor=#000000;fillColor=#FFFFFF;fontSize=14;fontFamily=Arial;fontStyle=1" vertex="1" parent="1">
      <mxGeometry x="500" y="1160" width="60" height="40" as="geometry" />
    </mxCell>

    <mxCell id="158" value="Naam
VARCHAR(100)
NOT NULL" style="shape=rectangle;whiteSpace=wrap;html=1;strokeColor=#000000;fillColor=#FFFFFF;fontSize=14;fontFamily=Arial;fontStyle=1" vertex="1" parent="1">
      <mxGeometry x="560" y="1160" width="320" height="40" as="geometry" />
    </mxCell>

    <mxCell id="159" value="" style="shape=rectangle;whiteSpace=wrap;html=1;strokeColor=#000000;fillColor=#FFFFFF;fontSize=14;fontFamily=Arial;fontStyle=1" vertex="1" parent="1">
      <mxGeometry x="500" y="1200" width="60" height="40" as="geometry" />
    </mxCell>

    <mxCell id="160" value="Beschrijving
TEXT" style="shape=rectangle;whiteSpace=wrap;html=1;strokeColor=#000000;fillColor=#FFFFFF;fontSize=14;fontFamily=Arial;fontStyle=1" vertex="1" parent="1">
      <mxGeometry x="560" y="1200" width="320" height="40" as="geometry" />
    </mxCell>

    <mxCell id="161" style="strokeColor=#000000;strokeWidth=2;endArrow=none;endFill=0;" edge="1" parent="1">
      <mxGeometry relative="1" as="geometry">
        <mxPoint x="560" y="1120" as="sourcePoint" />
        <mxPoint x="560" y="1240" as="targetPoint" />
      </mxGeometry>
    </mxCell>

    <mxCell id="162" value="" style="shape=rectangle;whiteSpace=wrap;html=1;strokeColor=#000000;fillColor=#FFFFFF;fontSize=14;fontFamily=Arial;fontStyle=1" vertex="1" parent="1">
      <mxGeometry x="1000" y="1080" width="380" height="200" as="geometry" />
    </mxCell>

    <mxCell id="163" value="SpelerAchievement" style="shape=rectangle;whiteSpace=wrap;html=1;strokeColor=#000000;fillColor=#FFFFFF;fontSize=16;fontFamily=Arial;fontStyle=1;" vertex="1" parent="1">
      <mxGeometry x="1000" y="1080" width="380" height="40" as="geometry" />
    </mxCell>

    <mxCell id="164" value="PK" style="shape=rectangle;whiteSpace=wrap;html=1;strokeColor=#000000;fillColor=#FFFFFF;fontSize=14;fontFamily=Arial;fontStyle=1" vertex="1" parent="1">
      <mxGeometry x="1000" y="1120" width="60" height="40" as="geometry" />
    </mxCell>

    <mxCell id="165" value="SpelerAchievementID
INT
NOT NULL, UNIQUE" style="shape=rectangle;whiteSpace=wrap;html=1;strokeColor=#000000;fillColor=#FFFFFF;fontSize=14;fontFamily=Arial;fontStyle=1" vertex="1" parent="1">
      <mxGeometry x="1060" y="1120" width="320" height="40" as="geometry" />
    </mxCell>

    <mxCell id="166" value="FK" style="shape=rectangle;whiteSpace=wrap;html=1;strokeColor=#000000;fillColor=#FFFFFF;fontSize=14;fontFamily=Arial;fontStyle=1" vertex="1" parent="1">
      <mxGeometry x="1000" y="1160" width="60" height="40" as="geometry" />
    </mxCell>

    <mxCell id="167" value="SpelerID
INT
NOT NULL" style="shape=rectangle;whiteSpace=wrap;html=1;strokeColor=#000000;fillColor=#FFFFFF;fontSize=14;fontFamily=Arial;fontStyle=1" vertex="1" parent="1">
      <mxGeometry x="1060" y="1160" width="320" height="40" as="geometry" />
    </mxCell>

    <mxCell id="168" value="FK" style="shape=rectangle;whiteSpace=wrap;html=1;strokeColor=#000000;fillColor=#FFFFFF;fontSize=14;fontFamily=Arial;fontStyle=1" vertex="1" parent="1">
      <mxGeometry x="1000" y="1200" width="60" height="40" as="geometry" />
    </mxCell>

    <mxCell id="169" value="AchievementID
INT
NOT NULL" style="shape=rectangle;whiteSpace=wrap;html=1;strokeColor=#000000;fillColor=#FFFFFF;fontSize=14;fontFamily=Arial;fontStyle=1" vertex="1" parent="1">
      <mxGeometry x="1060" y="1200" width="320" height="40" as="geometry" />
    </mxCell>

    <mxCell id="170" value="" style="shape=rectangle;whiteSpace=wrap;html=1;strokeColor=#000000;fillColor=#FFFFFF;fontSize=14;fontFamily=Arial;fontStyle=1" vertex="1" parent="1">
      <mxGeometry x="1000" y="1240" width="60" height="40" as="geometry" />
    </mxCell>

    <mxCell id="171" value="DatumBehaald
DATETIME
NOT NULL" style="shape=rectangle;whiteSpace=wrap;html=1;strokeColor=#000000;fillColor=#FFFFFF;fontSize=14;fontFamily=Arial;fontStyle=1" vertex="1" parent="1">
      <mxGeometry x="1060" y="1240" width="320" height="40" as="geometry" />
    </mxCell>

    <mxCell id="172" style="strokeColor=#000000;strokeWidth=2;endArrow=none;endFill=0;" edge="1" parent="1">
      <mxGeometry relative="1" as="geometry">
        <mxPoint x="1060" y="1120" as="sourcePoint" />
        <mxPoint x="1060" y="1280" as="targetPoint" />
      </mxGeometry>
    </mxCell>

    <mxCell id="173" value="" style="shape=rectangle;whiteSpace=wrap;html=1;strokeColor=#000000;fillColor=#FFFFFF;fontSize=14;fontFamily=Arial;fontStyle=1" vertex="1" parent="1">
      <mxGeometry x="1500" y="1080" width="380" height="240" as="geometry" />
    </mxCell>

    <mxCell id="174" value="Vrienden" style="shape=rectangle;whiteSpace=wrap;html=1;strokeColor=#000000;fillColor=#FFFFFF;fontSize=16;fontFamily=Arial;fontStyle=1;" vertex="1" parent="1">
      <mxGeometry x="1500" y="1080" width="380" height="40" as="geometry" />
    </mxCell>

    <mxCell id="175" value="PK" style="shape=rectangle;whiteSpace=wrap;html=1;strokeColor=#000000;fillColor=#FFFFFF;fontSize=14;fontFamily=Arial;fontStyle=1" vertex="1" parent="1">
      <mxGeometry x="1500" y="1120" width="60" height="40" as="geometry" />
    </mxCell>

    <mxCell id="176" value="VriendschapID
INT
NOT NULL, UNIQUE" style="shape=rectangle;whiteSpace=wrap;html=1;strokeColor=#000000;fillColor=#FFFFFF;fontSize=14;fontFamily=Arial;fontStyle=1" vertex="1" parent="1">
      <mxGeometry x="1560" y="1120" width="320" height="40" as="geometry" />
    </mxCell>

    <mxCell id="177" value="FK" style="shape=rectangle;whiteSpace=wrap;html=1;strokeColor=#000000;fillColor=#FFFFFF;fontSize=14;fontFamily=Arial;fontStyle=1" vertex="1" parent="1">
      <mxGeometry x="1500" y="1160" width="60" height="40" as="geometry" />
    </mxCell>

    <mxCell id="178" value="SpelerID1
INT
NOT NULL" style="shape=rectangle;whiteSpace=wrap;html=1;strokeColor=#000000;fillColor=#FFFFFF;fontSize=14;fontFamily=Arial;fontStyle=1" vertex="1" parent="1">
      <mxGeometry x="1560" y="1160" width="320" height="40" as="geometry" />
    </mxCell>

    <mxCell id="179" value="FK" style="shape=rectangle;whiteSpace=wrap;html=1;strokeColor=#000000;fillColor=#FFFFFF;fontSize=14;fontFamily=Arial;fontStyle=1" vertex="1" parent="1">
      <mxGeometry x="1500" y="1200" width="60" height="40" as="geometry" />
    </mxCell>

    <mxCell id="180" value="SpelerID2
INT
NOT NULL" style="shape=rectangle;whiteSpace=wrap;html=1;strokeColor=#000000;fillColor=#FFFFFF;fontSize=14;fontFamily=Arial;fontStyle=1" vertex="1" parent="1">
      <mxGeometry x="1560" y="1200" width="320" height="40" as="geometry" />
    </mxCell>

    <mxCell id="181" value="" style="shape=rectangle;whiteSpace=wrap;html=1;strokeColor=#000000;fillColor=#FFFFFF;fontSize=14;fontFamily=Arial;fontStyle=1" vertex="1" parent="1">
      <mxGeometry x="1500" y="1240" width="60" height="40" as="geometry" />
    </mxCell>

    <mxCell id="182" value="DatumToegevoegd
DATETIME
NOT NULL" style="shape=rectangle;whiteSpace=wrap;html=1;strokeColor=#000000;fillColor=#FFFFFF;fontSize=14;fontFamily=Arial;fontStyle=1" vertex="1" parent="1">
      <mxGeometry x="1560" y="1240" width="320" height="40" as="geometry" />
    </mxCell>

    <mxCell id="183" value="" style="shape=rectangle;whiteSpace=wrap;html=1;strokeColor=#000000;fillColor=#FFFFFF;fontSize=14;fontFamily=Arial;fontStyle=1" vertex="1" parent="1">
      <mxGeometry x="1500" y="1280" width="60" height="40" as="geometry" />
    </mxCell>

    <mxCell id="184" value="Status
VARCHAR(20)
NOT NULL" style="shape=rectangle;whiteSpace=wrap;html=1;strokeColor=#000000;fillColor=#FFFFFF;fontSize=14;fontFamily=Arial;fontStyle=1" vertex="1" parent="1">
      <mxGeometry x="1560" y="1280" width="320" height="40" as="geometry" />
    </mxCell>

    <mxCell id="185" style="strokeColor=#000000;strokeWidth=2;endArrow=none;endFill=0;" edge="1" parent="1">
      <mxGeometry relative="1" as="geometry">
        <mxPoint x="1560" y="1120" as="sourcePoint" />
        <mxPoint x="1560" y="1320" as="targetPoint" />
      </mxGeometry>
    </mxCell>

                    <mxCell id="186" style="strokeColor=#FF0000;strokeWidth=2;endArrow=ERzeroToOne;endFill=1;startArrow=ERzeroToOne;startFill=0;" edge="1" parent="1">
                      <mxGeometry relative="1" as="geometry">
                        <mxPoint x="500" y="220.0" as="sourcePoint" />
                          <Array as="points">
                            <mxPoint x="450.0" y="220.0" />
                            <mxPoint x="450.0" y="-50.0" />
                            <mxPoint x="-50.0" y="-50.0" />
                            <mxPoint x="-50.0" y="60.0" />
                          </Array>
                        <mxPoint x="0" y="60.0" as="targetPoint" />
                      </mxGeometry>
                    </mxCell>

                    <mxCell id="187" style="strokeColor=#00AA00;strokeWidth=2;endArrow=ERmandOne;endFill=1;startArrow=ERzeroToOne;startFill=0;" edge="1" parent="1">
                      <mxGeometry relative="1" as="geometry">
                        <mxPoint x="1500" y="100.0" as="sourcePoint" />
                          <Array as="points">
                            <mxPoint x="1450.0" y="100.0" />
                            <mxPoint x="1450.0" y="-45.0" />
                            <mxPoint x="-55.0" y="-45.0" />
                            <mxPoint x="-55.0" y="65.0" />
                          </Array>
                        <mxPoint x="0" y="65.0" as="targetPoint" />
                      </mxGeometry>
                    </mxCell>

                    <mxCell id="188" style="strokeColor=#0000FF;strokeWidth=2;endArrow=ERmandOne;endFill=1;startArrow=ERzeroToMany;startFill=0;" edge="1" parent="1">
                      <mxGeometry relative="1" as="geometry">
                        <mxPoint x="1500" y="140.0" as="sourcePoint" />
                          <Array as="points">
                            <mxPoint x="1445.0" y="140.0" />
                            <mxPoint x="1445.0" y="-40.0" />
                            <mxPoint x="950.0" y="-40.0" />
                            <mxPoint x="950.0" y="60.0" />
                          </Array>
                        <mxPoint x="1000" y="60.0" as="targetPoint" />
                      </mxGeometry>
                    </mxCell>

                    <mxCell id="189" style="strokeColor=#FFAA00;strokeWidth=2;endArrow=ERmandOne;endFill=1;startArrow=ERzeroToMany;startFill=0;" edge="1" parent="1">
                      <mxGeometry relative="1" as="geometry">
                        <mxPoint x="0" y="720.0" as="sourcePoint" />
                              <Array as="points">
                                <mxPoint x="-60.0" y="720.0" />
                                <mxPoint x="-60.0" y="70.0" />
                              </Array>
                        <mxPoint x="0" y="70.0" as="targetPoint" />
                      </mxGeometry>
                    </mxCell>

                    <mxCell id="190" style="strokeColor=#00AAAA;strokeWidth=2;endArrow=ERmandOne;endFill=1;startArrow=ERzeroToMany;startFill=0;" edge="1" parent="1">
                      <mxGeometry relative="1" as="geometry">
                        <mxPoint x="0" y="760.0" as="sourcePoint" />
                          <Array as="points">
                            <mxPoint x="-70.0" y="760.0" />
                            <mxPoint x="-70.0" y="575.0" />
                            <mxPoint x="445.0" y="575.0" />
                            <mxPoint x="445.0" y="60.0" />
                          </Array>
                        <mxPoint x="500" y="60.0" as="targetPoint" />
                      </mxGeometry>
                    </mxCell>

                    <mxCell id="191" style="strokeColor=#AA00AA;strokeWidth=2;endArrow=ERmandOne;endFill=1;startArrow=ERzeroToMany;startFill=0;" edge="1" parent="1">
                      <mxGeometry relative="1" as="geometry">
                        <mxPoint x="500" y="720.0" as="sourcePoint" />
                          <Array as="points">
                            <mxPoint x="440.0" y="720.0" />
                            <mxPoint x="440.0" y="580.0" />
                            <mxPoint x="-75.0" y="580.0" />
                            <mxPoint x="-75.0" y="75.0" />
                          </Array>
                        <mxPoint x="0" y="75.0" as="targetPoint" />
                      </mxGeometry>
                    </mxCell>

                    <mxCell id="192" style="strokeColor=#000000;strokeWidth=2;endArrow=ERmandOne;endFill=1;startArrow=ERzeroToMany;startFill=0;" edge="1" parent="1">
                      <mxGeometry relative="1" as="geometry">
                        <mxPoint x="1000" y="720.0" as="sourcePoint" />
                              <Array as="points">
                                <mxPoint x="945.0" y="720.0" />
                                <mxPoint x="945.0" y="65.0" />
                              </Array>
                        <mxPoint x="1000" y="65.0" as="targetPoint" />
                      </mxGeometry>
                    </mxCell>

                    <mxCell id="193" style="strokeColor=#AAAAAA;strokeWidth=2;endArrow=ERmandOne;endFill=1;startArrow=ERzeroToMany;startFill=0;" edge="1" parent="1">
                      <mxGeometry relative="1" as="geometry">
                        <mxPoint x="1500" y="720.0" as="sourcePoint" />
                          <Array as="points">
                            <mxPoint x="1440.0" y="720.0" />
                            <mxPoint x="1440.0" y="590.0" />
                            <mxPoint x="935.0" y="590.0" />
                            <mxPoint x="935.0" y="680.0" />
                          </Array>
                        <mxPoint x="1000" y="680.0" as="targetPoint" />
                      </mxGeometry>
                    </mxCell>

                    <mxCell id="194" style="strokeColor=#FF0000;strokeWidth=2;endArrow=ERmandOne;endFill=1;startArrow=ERzeroToMany;startFill=0;" edge="1" parent="1">
                      <mxGeometry relative="1" as="geometry">
                        <mxPoint x="1500" y="760.0" as="sourcePoint" />
                          <Array as="points">
                            <mxPoint x="1435.0" y="760.0" />
                            <mxPoint x="1435.0" y="595.0" />
                            <mxPoint x="930.0" y="595.0" />
                            <mxPoint x="930.0" y="70.0" />
                          </Array>
                        <mxPoint x="1000" y="70.0" as="targetPoint" />
                      </mxGeometry>
                    </mxCell>

                    <mxCell id="195" style="strokeColor=#00AA00;strokeWidth=2;endArrow=ERmandOne;endFill=1;startArrow=ERzeroToMany;startFill=0;" edge="1" parent="1">
                      <mxGeometry relative="1" as="geometry">
                        <mxPoint x="0" y="1180.0" as="sourcePoint" />
                          <Array as="points">
                            <mxPoint x="-80.0" y="1180.0" />
                            <mxPoint x="-80.0" y="1030.0" />
                            <mxPoint x="435.0" y="1030.0" />
                            <mxPoint x="435.0" y="65.0" />
                          </Array>
                        <mxPoint x="500" y="65.0" as="targetPoint" />
                      </mxGeometry>
                    </mxCell>

                    <mxCell id="196" style="strokeColor=#0000FF;strokeWidth=2;endArrow=ERmandOne;endFill=1;startArrow=ERzeroToMany;startFill=0;" edge="1" parent="1">
                      <mxGeometry relative="1" as="geometry">
                        <mxPoint x="0" y="1260.0" as="sourcePoint" />
                              <Array as="points">
                                <mxPoint x="-85.0" y="1260.0" />
                                <mxPoint x="-85.0" y="80.0" />
                              </Array>
                        <mxPoint x="0" y="80.0" as="targetPoint" />
                      </mxGeometry>
                    </mxCell>

                    <mxCell id="197" style="strokeColor=#FFAA00;strokeWidth=2;endArrow=ERmandOne;endFill=1;startArrow=ERzeroToMany;startFill=0;" edge="1" parent="1">
                      <mxGeometry relative="1" as="geometry">
                        <mxPoint x="1000" y="1180.0" as="sourcePoint" />
                          <Array as="points">
                            <mxPoint x="925.0" y="1180.0" />
                            <mxPoint x="925.0" y="1040.0" />
                            <mxPoint x="-95.0" y="1040.0" />
                            <mxPoint x="-95.0" y="85.0" />
                          </Array>
                        <mxPoint x="0" y="85.0" as="targetPoint" />
                      </mxGeometry>
                    </mxCell>

                    <mxCell id="198" style="strokeColor=#00AAAA;strokeWidth=2;endArrow=ERmandOne;endFill=1;startArrow=ERzeroToMany;startFill=0;" edge="1" parent="1">
                      <mxGeometry relative="1" as="geometry">
                        <mxPoint x="1000" y="1220.0" as="sourcePoint" />
                          <Array as="points">
                            <mxPoint x="920.0" y="1220.0" />
                            <mxPoint x="920.0" y="1045.0" />
                            <mxPoint x="430.0" y="1045.0" />
                            <mxPoint x="430.0" y="1140.0" />
                          </Array>
                        <mxPoint x="500" y="1140.0" as="targetPoint" />
                      </mxGeometry>
                    </mxCell>

                    <mxCell id="199" style="strokeColor=#AA00AA;strokeWidth=2;endArrow=ERmandOne;endFill=1;startArrow=ERzeroToMany;startFill=0;" edge="1" parent="1">
                      <mxGeometry relative="1" as="geometry">
                        <mxPoint x="1500" y="1180.0" as="sourcePoint" />
                          <Array as="points">
                            <mxPoint x="1430.0" y="1180.0" />
                            <mxPoint x="1430.0" y="1050.0" />
                            <mxPoint x="-100.0" y="1050.0" />
                            <mxPoint x="-100.0" y="90.0" />
                          </Array>
                        <mxPoint x="0" y="90.0" as="targetPoint" />
                      </mxGeometry>
                    </mxCell>

                    <mxCell id="200" style="strokeColor=#000000;strokeWidth=2;endArrow=ERmandOne;endFill=1;startArrow=ERzeroToMany;startFill=0;" edge="1" parent="1">
                      <mxGeometry relative="1" as="geometry">
                        <mxPoint x="1500" y="1220.0" as="sourcePoint" />
                          <Array as="points">
                            <mxPoint x="1425.0" y="1220.0" />
                            <mxPoint x="1425.0" y="1055.0" />
                            <mxPoint x="-105.0" y="1055.0" />
                            <mxPoint x="-105.0" y="95.0" />
                          </Array>
                        <mxPoint x="0" y="95.0" as="targetPoint" />
                      </mxGeometry>
                    </mxCell>
      </root>
    </mxGraphModel>
  </diagram>
</mxfile>